<svg width="250" height="250" xmlns="http://www.w3.org/2000/svg">
  <path id="svg_1" d="m29,29l192,0l0,192l-192,0l0,-192z" fill="none"/>
  <path id="svg_2" d="m137,125l17.06,19.5l22.94,14.66l4,-34.03l-4,-33.28l-23.38,12.88l-16.62,20.27z" fill="#00832D"/>
  <path id="svg_3" d="m38,156l0,29c0,6.63 5.37,12 12,12l29,0l6,-21.92l-6,-19.08l-19.9,-6l-21.1,6z" fill="#0066DA"/>
  <path id="svg_4" d="m79,53l-41,41l21.1,6l19.9,-6l5.9,-18.83l-5.9,-22.17z" fill="#E94235"/>
  <path id="svg_5" d="m38,94l41,0l0,62l-41,0l0,-62z" fill="#2684FC"/>
  <path id="svg_6" d="m203.19,69.36l-26.19,21.49l0,67.31l26.3,21.57c3.94,3.08 9.7,0.27 9.7,-4.73l0,-101c0,-5.07 -5.89,-7.85 -9.81,-4.64zm-66.19,54.64l0,31l-58,0l0,41l86,0c6.63,0 12,-5.37 12,-12l0,-25.84l-40,-34.16z" fill="#00AC47"/>
  <path id="svg_7" d="m165,53l-86,0l0,41l58,0l0,31l40,-33.15l0,-26.85c0,-6.63 -5.37,-12 -12,-12z" fill="#FFBA00"/>
</svg>